<mxfile host="app.diagrams.net" modified="2023-05-07T15:49:59.845Z" agent="Mozilla/5.0 (Windows NT 10.0; Win64; x64) AppleWebKit/537.36 (KHTML, like Gecko) Chrome/109.0.0.0 Safari/537.36" etag="BbsMT64grJSRaAEGkJ_a" version="21.2.1" type="device">
  <diagram name="Page-1" id="0PzBwJjYfiyoQTt9ITAM">
    <mxGraphModel dx="2801" dy="1260" grid="1" gridSize="10" guides="1" tooltips="1" connect="1" arrows="1" fold="1" page="1" pageScale="1" pageWidth="850" pageHeight="1100" math="0" shadow="0">
      <root>
        <mxCell id="0" />
        <mxCell id="1" parent="0" />
        <mxCell id="j_E8h0pjvMGOHepzt0uf-3" value="" style="edgeStyle=orthogonalEdgeStyle;rounded=0;orthogonalLoop=1;jettySize=auto;html=1;" parent="1" source="j_E8h0pjvMGOHepzt0uf-1" target="j_E8h0pjvMGOHepzt0uf-2" edge="1">
          <mxGeometry relative="1" as="geometry" />
        </mxCell>
        <mxCell id="j_E8h0pjvMGOHepzt0uf-1" value="START" style="ellipse;whiteSpace=wrap;html=1;" parent="1" vertex="1">
          <mxGeometry x="395" y="30" width="60" height="30" as="geometry" />
        </mxCell>
        <mxCell id="j_E8h0pjvMGOHepzt0uf-2" value="Display Main page with Options to Handle files" style="whiteSpace=wrap;html=1;" parent="1" vertex="1">
          <mxGeometry x="365" y="94" width="120" height="60" as="geometry" />
        </mxCell>
        <mxCell id="j_E8h0pjvMGOHepzt0uf-4" value="Option 1 &lt;br&gt;(File Creation)" style="rounded=0;whiteSpace=wrap;html=1;" parent="1" vertex="1">
          <mxGeometry x="-144" y="180" width="120" height="60" as="geometry" />
        </mxCell>
        <mxCell id="j_E8h0pjvMGOHepzt0uf-18" style="edgeStyle=orthogonalEdgeStyle;rounded=0;orthogonalLoop=1;jettySize=auto;html=1;entryX=0.5;entryY=0;entryDx=0;entryDy=0;" parent="1" source="j_E8h0pjvMGOHepzt0uf-5" target="j_E8h0pjvMGOHepzt0uf-17" edge="1">
          <mxGeometry relative="1" as="geometry" />
        </mxCell>
        <mxCell id="j_E8h0pjvMGOHepzt0uf-5" value="Option 2&amp;nbsp;&lt;br&gt;(Listing the files available in Directory)" style="rounded=0;whiteSpace=wrap;html=1;" parent="1" vertex="1">
          <mxGeometry x="100" y="180" width="120" height="60" as="geometry" />
        </mxCell>
        <mxCell id="j_E8h0pjvMGOHepzt0uf-21" style="edgeStyle=orthogonalEdgeStyle;rounded=0;orthogonalLoop=1;jettySize=auto;html=1;entryX=0.5;entryY=0;entryDx=0;entryDy=0;" parent="1" source="j_E8h0pjvMGOHepzt0uf-6" target="j_E8h0pjvMGOHepzt0uf-19" edge="1">
          <mxGeometry relative="1" as="geometry" />
        </mxCell>
        <mxCell id="j_E8h0pjvMGOHepzt0uf-6" value="Option 3&lt;br&gt;(Deleting a File)" style="rounded=0;whiteSpace=wrap;html=1;" parent="1" vertex="1">
          <mxGeometry x="380" y="180" width="120" height="60" as="geometry" />
        </mxCell>
        <mxCell id="j_E8h0pjvMGOHepzt0uf-22" style="edgeStyle=orthogonalEdgeStyle;rounded=0;orthogonalLoop=1;jettySize=auto;html=1;entryX=0.5;entryY=0;entryDx=0;entryDy=0;" parent="1" source="j_E8h0pjvMGOHepzt0uf-7" target="j_E8h0pjvMGOHepzt0uf-20" edge="1">
          <mxGeometry relative="1" as="geometry" />
        </mxCell>
        <mxCell id="j_E8h0pjvMGOHepzt0uf-7" value="Option 4&lt;br&gt;(Search a File)" style="rounded=0;whiteSpace=wrap;html=1;" parent="1" vertex="1">
          <mxGeometry x="663" y="180" width="120" height="60" as="geometry" />
        </mxCell>
        <mxCell id="j_E8h0pjvMGOHepzt0uf-8" value="Option 5&lt;br&gt;(Exiting from Program)" style="rounded=0;whiteSpace=wrap;html=1;" parent="1" vertex="1">
          <mxGeometry x="926" y="180" width="120" height="60" as="geometry" />
        </mxCell>
        <mxCell id="j_E8h0pjvMGOHepzt0uf-9" value="" style="endArrow=classic;html=1;rounded=0;exitX=0.5;exitY=1;exitDx=0;exitDy=0;entryX=0.5;entryY=0;entryDx=0;entryDy=0;" parent="1" source="j_E8h0pjvMGOHepzt0uf-2" target="j_E8h0pjvMGOHepzt0uf-4" edge="1">
          <mxGeometry width="50" height="50" relative="1" as="geometry">
            <mxPoint x="400" y="200" as="sourcePoint" />
            <mxPoint x="450" y="150" as="targetPoint" />
            <Array as="points">
              <mxPoint x="425" y="160" />
              <mxPoint x="300" y="160" />
              <mxPoint x="-84" y="160" />
            </Array>
          </mxGeometry>
        </mxCell>
        <mxCell id="j_E8h0pjvMGOHepzt0uf-11" value="" style="endArrow=classic;html=1;rounded=0;entryX=0.5;entryY=0;entryDx=0;entryDy=0;" parent="1" target="j_E8h0pjvMGOHepzt0uf-5" edge="1">
          <mxGeometry width="50" height="50" relative="1" as="geometry">
            <mxPoint x="160" y="160" as="sourcePoint" />
            <mxPoint x="280" y="160" as="targetPoint" />
          </mxGeometry>
        </mxCell>
        <mxCell id="j_E8h0pjvMGOHepzt0uf-12" value="" style="endArrow=classic;html=1;rounded=0;entryX=0.5;entryY=0;entryDx=0;entryDy=0;" parent="1" target="j_E8h0pjvMGOHepzt0uf-8" edge="1">
          <mxGeometry width="50" height="50" relative="1" as="geometry">
            <mxPoint x="425" y="160" as="sourcePoint" />
            <mxPoint x="495" y="160" as="targetPoint" />
            <Array as="points">
              <mxPoint x="700" y="160" />
              <mxPoint x="853" y="160" />
              <mxPoint x="986" y="160" />
            </Array>
          </mxGeometry>
        </mxCell>
        <mxCell id="j_E8h0pjvMGOHepzt0uf-13" value="" style="endArrow=classic;html=1;rounded=0;entryX=0.5;entryY=0;entryDx=0;entryDy=0;" parent="1" target="j_E8h0pjvMGOHepzt0uf-7" edge="1">
          <mxGeometry width="50" height="50" relative="1" as="geometry">
            <mxPoint x="723" y="160" as="sourcePoint" />
            <mxPoint x="783" y="160" as="targetPoint" />
          </mxGeometry>
        </mxCell>
        <mxCell id="j_E8h0pjvMGOHepzt0uf-14" value="" style="endArrow=classic;html=1;rounded=0;entryX=0.5;entryY=0;entryDx=0;entryDy=0;" parent="1" target="j_E8h0pjvMGOHepzt0uf-6" edge="1">
          <mxGeometry width="50" height="50" relative="1" as="geometry">
            <mxPoint x="440" y="160" as="sourcePoint" />
            <mxPoint x="500" y="160" as="targetPoint" />
          </mxGeometry>
        </mxCell>
        <mxCell id="j_E8h0pjvMGOHepzt0uf-15" value="" style="endArrow=classic;html=1;rounded=0;exitX=0.5;exitY=1;exitDx=0;exitDy=0;" parent="1" source="j_E8h0pjvMGOHepzt0uf-4" target="j_E8h0pjvMGOHepzt0uf-16" edge="1">
          <mxGeometry width="50" height="50" relative="1" as="geometry">
            <mxPoint x="186" y="250" as="sourcePoint" />
            <mxPoint x="-84" y="270" as="targetPoint" />
          </mxGeometry>
        </mxCell>
        <mxCell id="j_E8h0pjvMGOHepzt0uf-16" value="Create a file with user specified name.&amp;nbsp;" style="rounded=0;whiteSpace=wrap;html=1;" parent="1" vertex="1">
          <mxGeometry x="-144" y="271" width="120" height="89" as="geometry" />
        </mxCell>
        <mxCell id="j_E8h0pjvMGOHepzt0uf-17" value="List all the file in Directory" style="rounded=0;whiteSpace=wrap;html=1;" parent="1" vertex="1">
          <mxGeometry x="100" y="271" width="120" height="89" as="geometry" />
        </mxCell>
        <mxCell id="j_E8h0pjvMGOHepzt0uf-24" value="" style="edgeStyle=orthogonalEdgeStyle;rounded=0;orthogonalLoop=1;jettySize=auto;html=1;" parent="1" source="j_E8h0pjvMGOHepzt0uf-19" target="j_E8h0pjvMGOHepzt0uf-23" edge="1">
          <mxGeometry relative="1" as="geometry" />
        </mxCell>
        <mxCell id="j_E8h0pjvMGOHepzt0uf-19" value="Delete the file mentioned by user" style="rounded=0;whiteSpace=wrap;html=1;" parent="1" vertex="1">
          <mxGeometry x="380" y="271" width="120" height="89" as="geometry" />
        </mxCell>
        <mxCell id="j_E8h0pjvMGOHepzt0uf-20" value="Search the file mentioned by user" style="rounded=0;whiteSpace=wrap;html=1;" parent="1" vertex="1">
          <mxGeometry x="663" y="271" width="120" height="89" as="geometry" />
        </mxCell>
        <mxCell id="j_E8h0pjvMGOHepzt0uf-23" value="File Deleted" style="rhombus;whiteSpace=wrap;html=1;rounded=0;" parent="1" vertex="1">
          <mxGeometry x="400" y="390" width="80" height="70" as="geometry" />
        </mxCell>
        <mxCell id="zeBKANvQN0QYrE5DoDoM-1" value="IF Folder is empty&lt;br&gt;Return&lt;br&gt;&#39;There is no file present in the directory&#39;" style="rounded=0;whiteSpace=wrap;html=1;" vertex="1" parent="1">
          <mxGeometry x="240" y="410" width="140" height="90" as="geometry" />
        </mxCell>
        <mxCell id="zeBKANvQN0QYrE5DoDoM-3" value="If file mentioned by user is not available then Return &#39;File Not Found&#39;" style="rounded=0;whiteSpace=wrap;html=1;" vertex="1" parent="1">
          <mxGeometry x="510" y="410" width="120" height="60" as="geometry" />
        </mxCell>
        <mxCell id="zeBKANvQN0QYrE5DoDoM-4" value="" style="endArrow=classic;html=1;rounded=0;exitX=0;exitY=0.5;exitDx=0;exitDy=0;entryX=1;entryY=0.5;entryDx=0;entryDy=0;" edge="1" parent="1" source="j_E8h0pjvMGOHepzt0uf-23" target="zeBKANvQN0QYrE5DoDoM-1">
          <mxGeometry width="50" height="50" relative="1" as="geometry">
            <mxPoint x="400" y="480" as="sourcePoint" />
            <mxPoint x="450" y="430" as="targetPoint" />
          </mxGeometry>
        </mxCell>
        <mxCell id="zeBKANvQN0QYrE5DoDoM-7" value="NO" style="edgeLabel;html=1;align=center;verticalAlign=middle;resizable=0;points=[];" vertex="1" connectable="0" parent="zeBKANvQN0QYrE5DoDoM-4">
          <mxGeometry x="-0.2504" relative="1" as="geometry">
            <mxPoint as="offset" />
          </mxGeometry>
        </mxCell>
        <mxCell id="zeBKANvQN0QYrE5DoDoM-5" value="" style="endArrow=classic;html=1;rounded=0;exitX=0;exitY=0.5;exitDx=0;exitDy=0;entryX=0.414;entryY=-0.017;entryDx=0;entryDy=0;entryPerimeter=0;" edge="1" parent="1" target="zeBKANvQN0QYrE5DoDoM-10">
          <mxGeometry width="50" height="50" relative="1" as="geometry">
            <mxPoint x="440" y="460" as="sourcePoint" />
            <mxPoint x="440.28" y="518.0200000000001" as="targetPoint" />
          </mxGeometry>
        </mxCell>
        <mxCell id="zeBKANvQN0QYrE5DoDoM-9" value="Yes" style="edgeLabel;html=1;align=center;verticalAlign=middle;resizable=0;points=[];" vertex="1" connectable="0" parent="zeBKANvQN0QYrE5DoDoM-5">
          <mxGeometry x="-0.2875" y="1" relative="1" as="geometry">
            <mxPoint as="offset" />
          </mxGeometry>
        </mxCell>
        <mxCell id="zeBKANvQN0QYrE5DoDoM-6" value="" style="endArrow=classic;html=1;rounded=0;exitX=1;exitY=0.5;exitDx=0;exitDy=0;entryX=0;entryY=0.5;entryDx=0;entryDy=0;" edge="1" parent="1" source="j_E8h0pjvMGOHepzt0uf-23" target="zeBKANvQN0QYrE5DoDoM-3">
          <mxGeometry width="50" height="50" relative="1" as="geometry">
            <mxPoint x="380" y="470" as="sourcePoint" />
            <mxPoint x="430" y="420" as="targetPoint" />
            <Array as="points">
              <mxPoint x="490" y="430" />
            </Array>
          </mxGeometry>
        </mxCell>
        <mxCell id="zeBKANvQN0QYrE5DoDoM-8" value="No" style="edgeLabel;html=1;align=center;verticalAlign=middle;resizable=0;points=[];" vertex="1" connectable="0" parent="zeBKANvQN0QYrE5DoDoM-6">
          <mxGeometry x="-0.123" relative="1" as="geometry">
            <mxPoint as="offset" />
          </mxGeometry>
        </mxCell>
        <mxCell id="zeBKANvQN0QYrE5DoDoM-10" value="&lt;font style=&quot;font-size: 23px;&quot;&gt;Display if User still wants to navigate back to the Options&lt;/font&gt;" style="rounded=0;whiteSpace=wrap;html=1;" vertex="1" parent="1">
          <mxGeometry x="-160" y="640" width="1450" height="60" as="geometry" />
        </mxCell>
        <mxCell id="zeBKANvQN0QYrE5DoDoM-11" value="Check for Yes / No" style="rhombus;whiteSpace=wrap;html=1;" vertex="1" parent="1">
          <mxGeometry x="400" y="730" width="80" height="80" as="geometry" />
        </mxCell>
        <mxCell id="zeBKANvQN0QYrE5DoDoM-12" value="" style="endArrow=classic;html=1;rounded=0;exitX=0.5;exitY=1;exitDx=0;exitDy=0;entryX=0.5;entryY=0;entryDx=0;entryDy=0;" edge="1" parent="1" source="zeBKANvQN0QYrE5DoDoM-11" target="zeBKANvQN0QYrE5DoDoM-13">
          <mxGeometry width="50" height="50" relative="1" as="geometry">
            <mxPoint x="400" y="860" as="sourcePoint" />
            <mxPoint x="400" y="890" as="targetPoint" />
          </mxGeometry>
        </mxCell>
        <mxCell id="zeBKANvQN0QYrE5DoDoM-14" value="Yes" style="edgeLabel;html=1;align=center;verticalAlign=middle;resizable=0;points=[];" vertex="1" connectable="0" parent="zeBKANvQN0QYrE5DoDoM-12">
          <mxGeometry x="-0.2673" relative="1" as="geometry">
            <mxPoint as="offset" />
          </mxGeometry>
        </mxCell>
        <mxCell id="zeBKANvQN0QYrE5DoDoM-13" value="END" style="shape=parallelogram;perimeter=parallelogramPerimeter;whiteSpace=wrap;html=1;fixedSize=1;" vertex="1" parent="1">
          <mxGeometry x="380" y="890" width="120" height="60" as="geometry" />
        </mxCell>
        <mxCell id="zeBKANvQN0QYrE5DoDoM-15" value="" style="endArrow=classic;html=1;rounded=0;exitX=0;exitY=0.5;exitDx=0;exitDy=0;entryX=0;entryY=0.5;entryDx=0;entryDy=0;" edge="1" parent="1" source="zeBKANvQN0QYrE5DoDoM-11" target="j_E8h0pjvMGOHepzt0uf-2">
          <mxGeometry width="50" height="50" relative="1" as="geometry">
            <mxPoint x="20" y="770" as="sourcePoint" />
            <mxPoint x="50" y="230" as="targetPoint" />
            <Array as="points">
              <mxPoint x="-300" y="770" />
              <mxPoint x="-300" y="124" />
            </Array>
          </mxGeometry>
        </mxCell>
        <mxCell id="zeBKANvQN0QYrE5DoDoM-16" value="Yes" style="edgeLabel;html=1;align=center;verticalAlign=middle;resizable=0;points=[];" vertex="1" connectable="0" parent="zeBKANvQN0QYrE5DoDoM-15">
          <mxGeometry x="-0.6318" y="2" relative="1" as="geometry">
            <mxPoint as="offset" />
          </mxGeometry>
        </mxCell>
        <mxCell id="zeBKANvQN0QYrE5DoDoM-19" value="File Found" style="rhombus;whiteSpace=wrap;html=1;rounded=0;" vertex="1" parent="1">
          <mxGeometry x="683" y="380" width="80" height="70" as="geometry" />
        </mxCell>
        <mxCell id="zeBKANvQN0QYrE5DoDoM-20" value="" style="endArrow=classic;html=1;rounded=0;exitX=0.5;exitY=1;exitDx=0;exitDy=0;entryX=0.5;entryY=0;entryDx=0;entryDy=0;" edge="1" parent="1" source="j_E8h0pjvMGOHepzt0uf-20" target="zeBKANvQN0QYrE5DoDoM-19">
          <mxGeometry width="50" height="50" relative="1" as="geometry">
            <mxPoint x="540" y="440" as="sourcePoint" />
            <mxPoint x="590" y="390" as="targetPoint" />
          </mxGeometry>
        </mxCell>
        <mxCell id="zeBKANvQN0QYrE5DoDoM-21" value="" style="endArrow=classic;html=1;rounded=0;exitX=0.5;exitY=1;exitDx=0;exitDy=0;" edge="1" parent="1" source="zeBKANvQN0QYrE5DoDoM-19" target="zeBKANvQN0QYrE5DoDoM-22">
          <mxGeometry width="50" height="50" relative="1" as="geometry">
            <mxPoint x="560" y="390" as="sourcePoint" />
            <mxPoint x="723" y="500" as="targetPoint" />
          </mxGeometry>
        </mxCell>
        <mxCell id="zeBKANvQN0QYrE5DoDoM-24" value="Yes" style="edgeLabel;html=1;align=center;verticalAlign=middle;resizable=0;points=[];" vertex="1" connectable="0" parent="zeBKANvQN0QYrE5DoDoM-21">
          <mxGeometry x="-0.4089" relative="1" as="geometry">
            <mxPoint as="offset" />
          </mxGeometry>
        </mxCell>
        <mxCell id="zeBKANvQN0QYrE5DoDoM-22" value="File found and return Name" style="rounded=0;whiteSpace=wrap;html=1;" vertex="1" parent="1">
          <mxGeometry x="663" y="485" width="120" height="60" as="geometry" />
        </mxCell>
        <mxCell id="zeBKANvQN0QYrE5DoDoM-23" value="If File not found Return&lt;br&gt;&#39;File Not Found&#39;" style="rounded=0;whiteSpace=wrap;html=1;" vertex="1" parent="1">
          <mxGeometry x="790" y="486" width="120" height="60" as="geometry" />
        </mxCell>
        <mxCell id="zeBKANvQN0QYrE5DoDoM-25" value="" style="endArrow=classic;html=1;rounded=0;exitX=1;exitY=0.5;exitDx=0;exitDy=0;entryX=0.5;entryY=0;entryDx=0;entryDy=0;" edge="1" parent="1" source="zeBKANvQN0QYrE5DoDoM-19" target="zeBKANvQN0QYrE5DoDoM-23">
          <mxGeometry width="50" height="50" relative="1" as="geometry">
            <mxPoint x="780" y="460" as="sourcePoint" />
            <mxPoint x="830" y="410" as="targetPoint" />
            <Array as="points">
              <mxPoint x="850" y="415" />
            </Array>
          </mxGeometry>
        </mxCell>
        <mxCell id="zeBKANvQN0QYrE5DoDoM-26" value="No" style="edgeLabel;html=1;align=center;verticalAlign=middle;resizable=0;points=[];" vertex="1" connectable="0" parent="zeBKANvQN0QYrE5DoDoM-25">
          <mxGeometry x="-0.3445" relative="1" as="geometry">
            <mxPoint as="offset" />
          </mxGeometry>
        </mxCell>
        <mxCell id="zeBKANvQN0QYrE5DoDoM-28" value="" style="endArrow=classic;html=1;rounded=0;exitX=0.5;exitY=1;exitDx=0;exitDy=0;" edge="1" parent="1" source="zeBKANvQN0QYrE5DoDoM-22">
          <mxGeometry width="50" height="50" relative="1" as="geometry">
            <mxPoint x="790" y="600" as="sourcePoint" />
            <mxPoint x="723" y="640" as="targetPoint" />
          </mxGeometry>
        </mxCell>
        <mxCell id="zeBKANvQN0QYrE5DoDoM-29" value="" style="endArrow=classic;html=1;rounded=0;exitX=0.5;exitY=1;exitDx=0;exitDy=0;" edge="1" parent="1" source="zeBKANvQN0QYrE5DoDoM-23">
          <mxGeometry width="50" height="50" relative="1" as="geometry">
            <mxPoint x="790" y="600" as="sourcePoint" />
            <mxPoint x="720" y="600" as="targetPoint" />
            <Array as="points">
              <mxPoint x="850" y="600" />
            </Array>
          </mxGeometry>
        </mxCell>
        <mxCell id="zeBKANvQN0QYrE5DoDoM-30" style="edgeStyle=orthogonalEdgeStyle;rounded=0;orthogonalLoop=1;jettySize=auto;html=1;entryX=0.5;entryY=0;entryDx=0;entryDy=0;" edge="1" parent="1" target="zeBKANvQN0QYrE5DoDoM-31">
          <mxGeometry relative="1" as="geometry">
            <mxPoint x="986" y="240" as="sourcePoint" />
          </mxGeometry>
        </mxCell>
        <mxCell id="zeBKANvQN0QYrE5DoDoM-31" value="Return&lt;br&gt;&#39;Thank You User&#39;" style="rounded=0;whiteSpace=wrap;html=1;" vertex="1" parent="1">
          <mxGeometry x="926" y="271" width="120" height="89" as="geometry" />
        </mxCell>
        <mxCell id="zeBKANvQN0QYrE5DoDoM-32" value="" style="endArrow=classic;html=1;rounded=0;exitX=0.5;exitY=1;exitDx=0;exitDy=0;entryX=0.791;entryY=0;entryDx=0;entryDy=0;entryPerimeter=0;" edge="1" parent="1" source="zeBKANvQN0QYrE5DoDoM-31" target="zeBKANvQN0QYrE5DoDoM-10">
          <mxGeometry width="50" height="50" relative="1" as="geometry">
            <mxPoint x="670" y="610" as="sourcePoint" />
            <mxPoint x="720" y="560" as="targetPoint" />
          </mxGeometry>
        </mxCell>
        <mxCell id="zeBKANvQN0QYrE5DoDoM-33" value="File Created" style="rhombus;whiteSpace=wrap;html=1;rounded=0;" vertex="1" parent="1">
          <mxGeometry x="-124" y="400" width="80" height="70" as="geometry" />
        </mxCell>
        <mxCell id="zeBKANvQN0QYrE5DoDoM-37" value="File Created and Return Name of File" style="rounded=0;whiteSpace=wrap;html=1;" vertex="1" parent="1">
          <mxGeometry x="-144" y="500" width="120" height="60" as="geometry" />
        </mxCell>
        <mxCell id="zeBKANvQN0QYrE5DoDoM-38" value="File Already Exist" style="rounded=0;whiteSpace=wrap;html=1;" vertex="1" parent="1">
          <mxGeometry x="-17" y="501" width="120" height="60" as="geometry" />
        </mxCell>
        <mxCell id="zeBKANvQN0QYrE5DoDoM-39" value="" style="endArrow=classic;html=1;rounded=0;exitX=1;exitY=0.5;exitDx=0;exitDy=0;entryX=0.5;entryY=0;entryDx=0;entryDy=0;" edge="1" parent="1" target="zeBKANvQN0QYrE5DoDoM-38" source="zeBKANvQN0QYrE5DoDoM-33">
          <mxGeometry width="50" height="50" relative="1" as="geometry">
            <mxPoint x="-44" y="430" as="sourcePoint" />
            <mxPoint x="23" y="425" as="targetPoint" />
            <Array as="points">
              <mxPoint x="43" y="435" />
            </Array>
          </mxGeometry>
        </mxCell>
        <mxCell id="zeBKANvQN0QYrE5DoDoM-40" value="No" style="edgeLabel;html=1;align=center;verticalAlign=middle;resizable=0;points=[];" vertex="1" connectable="0" parent="zeBKANvQN0QYrE5DoDoM-39">
          <mxGeometry x="-0.3445" relative="1" as="geometry">
            <mxPoint as="offset" />
          </mxGeometry>
        </mxCell>
        <mxCell id="zeBKANvQN0QYrE5DoDoM-42" value="" style="endArrow=classic;html=1;rounded=0;exitX=0.5;exitY=1;exitDx=0;exitDy=0;" edge="1" parent="1" source="zeBKANvQN0QYrE5DoDoM-38">
          <mxGeometry width="50" height="50" relative="1" as="geometry">
            <mxPoint x="-17" y="615" as="sourcePoint" />
            <mxPoint x="-87" y="615" as="targetPoint" />
            <Array as="points">
              <mxPoint x="43" y="615" />
            </Array>
          </mxGeometry>
        </mxCell>
        <mxCell id="zeBKANvQN0QYrE5DoDoM-43" value="" style="endArrow=classic;html=1;rounded=0;exitX=0.5;exitY=1;exitDx=0;exitDy=0;entryX=0.5;entryY=0;entryDx=0;entryDy=0;" edge="1" parent="1" source="zeBKANvQN0QYrE5DoDoM-33" target="zeBKANvQN0QYrE5DoDoM-37">
          <mxGeometry width="50" height="50" relative="1" as="geometry">
            <mxPoint x="-10" y="510" as="sourcePoint" />
            <mxPoint x="40" y="460" as="targetPoint" />
          </mxGeometry>
        </mxCell>
        <mxCell id="zeBKANvQN0QYrE5DoDoM-44" value="Yes" style="edgeLabel;html=1;align=center;verticalAlign=middle;resizable=0;points=[];" vertex="1" connectable="0" parent="zeBKANvQN0QYrE5DoDoM-43">
          <mxGeometry x="-0.3467" y="1" relative="1" as="geometry">
            <mxPoint as="offset" />
          </mxGeometry>
        </mxCell>
        <mxCell id="zeBKANvQN0QYrE5DoDoM-45" value="" style="endArrow=classic;html=1;rounded=0;exitX=0.449;exitY=1.019;exitDx=0;exitDy=0;exitPerimeter=0;entryX=0.048;entryY=0;entryDx=0;entryDy=0;entryPerimeter=0;" edge="1" parent="1" source="zeBKANvQN0QYrE5DoDoM-37" target="zeBKANvQN0QYrE5DoDoM-10">
          <mxGeometry width="50" height="50" relative="1" as="geometry">
            <mxPoint x="-50" y="600" as="sourcePoint" />
            <mxPoint x="-90" y="620" as="targetPoint" />
          </mxGeometry>
        </mxCell>
        <mxCell id="zeBKANvQN0QYrE5DoDoM-46" value="" style="endArrow=classic;html=1;rounded=0;exitX=0.5;exitY=1;exitDx=0;exitDy=0;entryX=0.5;entryY=0;entryDx=0;entryDy=0;" edge="1" parent="1" source="j_E8h0pjvMGOHepzt0uf-16" target="zeBKANvQN0QYrE5DoDoM-33">
          <mxGeometry width="50" height="50" relative="1" as="geometry">
            <mxPoint x="60" y="460" as="sourcePoint" />
            <mxPoint x="110" y="410" as="targetPoint" />
          </mxGeometry>
        </mxCell>
        <mxCell id="zeBKANvQN0QYrE5DoDoM-47" value="" style="endArrow=classic;html=1;rounded=0;exitX=0.5;exitY=1;exitDx=0;exitDy=0;entryX=0.221;entryY=0;entryDx=0;entryDy=0;entryPerimeter=0;" edge="1" parent="1" source="j_E8h0pjvMGOHepzt0uf-17" target="zeBKANvQN0QYrE5DoDoM-10">
          <mxGeometry width="50" height="50" relative="1" as="geometry">
            <mxPoint x="40" y="500" as="sourcePoint" />
            <mxPoint x="90" y="450" as="targetPoint" />
          </mxGeometry>
        </mxCell>
        <mxCell id="zeBKANvQN0QYrE5DoDoM-48" value="" style="endArrow=classic;html=1;rounded=0;entryX=0.5;entryY=0;entryDx=0;entryDy=0;" edge="1" parent="1" target="zeBKANvQN0QYrE5DoDoM-11">
          <mxGeometry width="50" height="50" relative="1" as="geometry">
            <mxPoint x="440" y="700" as="sourcePoint" />
            <mxPoint x="490" y="650" as="targetPoint" />
          </mxGeometry>
        </mxCell>
      </root>
    </mxGraphModel>
  </diagram>
</mxfile>
